<svg width="70" height="70" viewBox="0 0 70 70" fill="none" xmlns="http://www.w3.org/2000/svg">
<path d="M35 5.8335C31.1698 5.8335 27.3771 6.58791 23.8384 8.05368C20.2998 9.51944 17.0845 11.6678 14.3761 14.3762C8.90628 19.846 5.83337 27.2647 5.83337 35.0002C5.83337 47.8918 14.2042 58.8293 25.7834 62.7085C27.2417 62.9418 27.7084 62.0377 27.7084 61.2502V56.321C19.6292 58.071 17.9084 52.4127 17.9084 52.4127C16.5667 49.0293 14.6709 48.1252 14.6709 48.1252C12.0167 46.3168 14.875 46.3752 14.875 46.3752C17.7917 46.5793 19.3375 49.3793 19.3375 49.3793C21.875 53.8127 26.1625 52.5002 27.825 51.8002C28.0875 49.9043 28.8459 48.621 29.6625 47.8918C23.1875 47.1627 16.3917 44.6543 16.3917 33.5418C16.3917 30.3043 17.5 27.7085 19.3959 25.6377C19.1042 24.9085 18.0834 21.8752 19.6875 17.9377C19.6875 17.9377 22.1375 17.1502 27.7084 20.9127C30.0125 20.271 32.5209 19.9502 35 19.9502C37.4792 19.9502 39.9875 20.271 42.2917 20.9127C47.8625 17.1502 50.3125 17.9377 50.3125 17.9377C51.9167 21.8752 50.8959 24.9085 50.6042 25.6377C52.5 27.7085 53.6084 30.3043 53.6084 33.5418C53.6084 44.6835 46.7834 47.1335 40.2792 47.8627C41.3292 48.7668 42.2917 50.546 42.2917 53.2585V61.2502C42.2917 62.0377 42.7584 62.971 44.2459 62.7085C55.825 58.8002 64.1667 47.8918 64.1667 35.0002C64.1667 31.1699 63.4123 27.3772 61.9465 23.8386C60.4808 20.2999 58.3324 17.0846 55.624 14.3762C52.9156 11.6678 49.7003 9.51944 46.1616 8.05368C42.623 6.58791 38.8303 5.8335 35 5.8335Z" fill="white"/>
</svg>
