<svg width="70" height="70" viewBox="0 0 70 70" fill="none" xmlns="http://www.w3.org/2000/svg">
<path d="M48.4166 16.975C46.4233 14.6986 45.3247 11.7757 45.325 8.75H36.3125V44.9167C36.2444 46.8743 35.4186 48.729 34.0092 50.0894C32.5998 51.4498 30.7171 52.2095 28.7583 52.2083C24.6166 52.2083 21.175 48.825 21.175 44.625C21.175 39.6083 26.0166 35.8458 31.0041 37.3917V28.175C20.9416 26.8333 12.1333 34.65 12.1333 44.625C12.1333 54.3375 20.1833 61.25 28.7291 61.25C37.8875 61.25 45.325 53.8125 45.325 44.625V26.2792C48.9795 28.9037 53.3673 30.3119 57.8666 30.3042V21.2917C57.8666 21.2917 52.3833 21.5542 48.4166 16.975Z" fill="white"/>
</svg>
