<svg width="70" height="70" viewBox="0 0 70 70" fill="none" xmlns="http://www.w3.org/2000/svg">
<path d="M35.0002 5.83301C31.1699 5.83301 27.3772 6.58743 23.8386 8.05319C20.2999 9.51895 17.0846 11.6674 14.3762 14.3757C8.9064 19.8455 5.8335 27.2642 5.8335 34.9997C5.8335 47.8913 14.2043 58.8288 25.7835 62.708C27.2418 62.9413 27.7085 62.0372 27.7085 61.2497V56.3205C19.6293 58.0705 17.9085 52.4122 17.9085 52.4122C16.5668 49.0288 14.671 48.1247 14.671 48.1247C12.0168 46.3163 14.8752 46.3747 14.8752 46.3747C17.7918 46.5788 19.3377 49.3788 19.3377 49.3788C21.8752 53.8122 26.1627 52.4997 27.8252 51.7997C28.0877 49.9038 28.846 48.6205 29.6627 47.8913C23.1877 47.1622 16.3918 44.6538 16.3918 33.5413C16.3918 30.3038 17.5002 27.708 19.396 25.6372C19.1043 24.908 18.0835 21.8747 19.6877 17.9372C19.6877 17.9372 22.1377 17.1497 27.7085 20.9122C30.0127 20.2705 32.521 19.9497 35.0002 19.9497C37.4793 19.9497 39.9877 20.2705 42.2918 20.9122C47.8627 17.1497 50.3127 17.9372 50.3127 17.9372C51.9168 21.8747 50.896 24.908 50.6043 25.6372C52.5002 27.708 53.6085 30.3038 53.6085 33.5413C53.6085 44.683 46.7835 47.133 40.2793 47.8622C41.3293 48.7663 42.2918 50.5455 42.2918 53.258V61.2497C42.2918 62.0372 42.7585 62.9705 44.246 62.708C55.8252 58.7997 64.1668 47.8913 64.1668 34.9997C64.1668 31.1695 63.4124 27.3767 61.9466 23.8381C60.4809 20.2994 58.3325 17.0841 55.6241 14.3757C52.9157 11.6674 49.7004 9.51895 46.1618 8.05319C42.6231 6.58743 38.8304 5.83301 35.0002 5.83301Z" fill="white"/>
</svg>
