<svg width="70" height="70" viewBox="0 0 70 70" fill="none" xmlns="http://www.w3.org/2000/svg">
<path d="M35 24.8062C29.3563 24.8062 24.8062 29.4 24.8062 35C24.8062 40.6 29.4 45.1937 35 45.1937C40.6 45.1937 45.1937 40.6 45.1937 35C45.1937 29.4 40.6 24.8062 35 24.8062ZM65.625 35C65.625 30.7563 65.625 26.6 65.4062 22.3563C65.1875 17.4563 64.05 13.0813 60.4625 9.5375C56.875 5.95 52.5438 4.8125 47.6438 4.59375C43.4 4.375 39.2438 4.375 35 4.375C30.7563 4.375 26.6 4.375 22.3563 4.59375C17.4563 4.8125 13.0813 5.95 9.5375 9.5375C5.95 13.125 4.8125 17.4563 4.59375 22.3563C4.375 26.6 4.375 30.7563 4.375 35C4.375 39.2438 4.375 43.4 4.59375 47.6438C4.8125 52.5438 5.95 56.9187 9.5375 60.4625C13.125 64.05 17.4563 65.1875 22.3563 65.4062C26.6 65.625 30.7563 65.625 35 65.625C39.2438 65.625 43.4 65.625 47.6438 65.4062C52.5438 65.1875 56.9187 64.05 60.4625 60.4625C64.05 56.875 65.1875 52.5438 65.4062 47.6438C65.6688 43.4438 65.625 39.2438 65.625 35ZM35 50.7062C26.2938 50.7062 19.2937 43.7062 19.2937 35C19.2937 26.2938 26.2938 19.2937 35 19.2937C43.7062 19.2937 50.7062 26.2938 50.7062 35C50.7062 43.7062 43.7062 50.7062 35 50.7062ZM51.3625 22.3125C49.35 22.3125 47.6875 20.6938 47.6875 18.6375C47.6875 16.5813 49.3062 14.9625 51.3625 14.9625C53.4188 14.9625 55.0375 16.5813 55.0375 18.6375C55.0486 19.1167 54.9611 19.5931 54.7805 20.0371C54.5998 20.4811 54.3299 20.8833 53.9875 21.2188C53.6521 21.5612 53.2499 21.8311 52.8059 22.0117C52.3619 22.1923 51.8855 22.2798 51.4062 22.2688L51.3625 22.3125Z" fill="white"/>
</svg>
