<svg width="62" height="62" viewBox="0 0 62 62" fill="none" xmlns="http://www.w3.org/2000/svg">
<path d="M31 20.8062C25.3563 20.8062 20.8062 25.4 20.8062 31C20.8062 36.6 25.4 41.1937 31 41.1937C36.6 41.1937 41.1937 36.6 41.1937 31C41.1937 25.4 36.6 20.8062 31 20.8062ZM61.625 31C61.625 26.7563 61.625 22.6 61.4062 18.3563C61.1875 13.4563 60.05 9.0813 56.4625 5.5375C52.875 1.95 48.5438 0.8125 43.6438 0.59375C39.4 0.375 35.2438 0.375 31 0.375C26.7563 0.375 22.6 0.375 18.3563 0.59375C13.4563 0.8125 9.0813 1.95 5.5375 5.5375C1.95 9.125 0.8125 13.4563 0.59375 18.3563C0.375 22.6 0.375 26.7563 0.375 31C0.375 35.2438 0.375 39.4 0.59375 43.6438C0.8125 48.5438 1.95 52.9187 5.5375 56.4625C9.125 60.05 13.4563 61.1875 18.3563 61.4062C22.6 61.625 26.7563 61.625 31 61.625C35.2438 61.625 39.4 61.625 43.6438 61.4062C48.5438 61.1875 52.9187 60.05 56.4625 56.4625C60.05 52.875 61.1875 48.5438 61.4062 43.6438C61.6688 39.4438 61.625 35.2438 61.625 31ZM31 46.7062C22.2938 46.7062 15.2937 39.7062 15.2937 31C15.2937 22.2938 22.2938 15.2937 31 15.2937C39.7062 15.2937 46.7062 22.2938 46.7062 31C46.7062 39.7062 39.7062 46.7062 31 46.7062ZM47.3625 18.3125C45.35 18.3125 43.6875 16.6938 43.6875 14.6375C43.6875 12.5813 45.3062 10.9625 47.3625 10.9625C49.4188 10.9625 51.0375 12.5813 51.0375 14.6375C51.0486 15.1167 50.9611 15.5931 50.7805 16.0371C50.5998 16.4811 50.3299 16.8833 49.9875 17.2188C49.6521 17.5612 49.2499 17.8311 48.8059 18.0117C48.3619 18.1923 47.8855 18.2798 47.4062 18.2688L47.3625 18.3125Z" fill="#200C80"/>
</svg>
