<svg width="37" height="35" viewBox="0 0 37 35" fill="none" xmlns="http://www.w3.org/2000/svg">
<path d="M36.4166 29.3341C36.4166 29.6905 36.275 30.0323 36.023 30.2843C35.771 30.5363 35.4292 30.6778 35.0728 30.6778H25.9353C25.6361 31.7938 24.9769 32.7799 24.0602 33.4832C23.1435 34.1865 22.0203 34.5676 20.8649 34.5676C19.7095 34.5676 18.5864 34.1865 17.6696 33.4832C16.7529 32.7799 16.0938 31.7938 15.7945 30.6778H1.927C1.57062 30.6778 1.22883 30.5363 0.976827 30.2843C0.724825 30.0323 0.583252 29.6905 0.583252 29.3341C0.583252 28.9777 0.724825 28.6359 0.976827 28.3839C1.22883 28.1319 1.57062 27.9903 1.927 27.9903H15.7945C16.0938 26.8743 16.7529 25.8883 17.6696 25.185C18.5864 24.4817 19.7095 24.1005 20.8649 24.1005C22.0203 24.1005 23.1435 24.4817 24.0602 25.185C24.9769 25.8883 25.6361 26.8743 25.9353 27.9903H35.0728C35.4292 27.9903 35.771 28.1319 36.023 28.3839C36.275 28.6359 36.4166 28.9777 36.4166 29.3341ZM36.4166 5.66617C36.4166 6.02256 36.275 6.36434 36.023 6.61635C35.771 6.86835 35.4292 7.00992 35.0728 7.00992H30.6833C30.384 8.12591 29.7249 9.11198 28.8081 9.81526C27.8914 10.5185 26.7683 10.8997 25.6128 10.8997C24.4574 10.8997 23.3343 10.5185 22.4175 9.81526C21.5008 9.11198 20.8417 8.12591 20.5424 7.00992H1.927C1.75054 7.00992 1.5758 6.97516 1.41277 6.90763C1.24974 6.8401 1.10161 6.74112 0.976827 6.61635C0.852048 6.49157 0.753068 6.34343 0.685539 6.1804C0.618009 6.01737 0.583252 5.84263 0.583252 5.66617C0.583252 5.48971 0.618009 5.31497 0.685539 5.15194C0.753068 4.98891 0.852048 4.84078 0.976827 4.716C1.10161 4.59122 1.24974 4.49224 1.41277 4.42471C1.5758 4.35718 1.75054 4.32242 1.927 4.32242H20.5424C20.8417 3.20643 21.5008 2.22036 22.4175 1.51708C23.3343 0.813806 24.4574 0.432617 25.6128 0.432617C26.7683 0.432617 27.8914 0.813806 28.8081 1.51708C29.7249 2.22036 30.384 3.20643 30.6833 4.32242H35.0728C35.25 4.32001 35.4258 4.35312 35.5899 4.4198C35.754 4.48647 35.9031 4.58536 36.0284 4.71063C36.1536 4.83589 36.2525 4.98498 36.3192 5.1491C36.3859 5.31322 36.419 5.48904 36.4166 5.66617ZM36.4166 17.4912C36.419 17.6683 36.3859 17.8441 36.3192 18.0082C36.2525 18.1724 36.1536 18.3215 36.0284 18.4467C35.9031 18.572 35.754 18.6709 35.5899 18.7375C35.4258 18.8042 35.25 18.8373 35.0728 18.8349H14.1103C13.8111 19.9509 13.1519 20.937 12.2352 21.6403C11.3185 22.3435 10.1953 22.7247 9.03992 22.7247C7.8845 22.7247 6.76135 22.3435 5.84462 21.6403C4.92789 20.937 4.26879 19.9509 3.9695 18.8349H1.927C1.57062 18.8349 1.22883 18.6933 0.976827 18.4413C0.724825 18.1893 0.583252 17.8476 0.583252 17.4912C0.583252 17.1348 0.724825 16.793 0.976827 16.541C1.22883 16.289 1.57062 16.1474 1.927 16.1474H3.9695C4.26879 15.0314 4.92789 14.0454 5.84462 13.3421C6.76135 12.6388 7.8845 12.2576 9.03992 12.2576C10.1953 12.2576 11.3185 12.6388 12.2352 13.3421C13.1519 14.0454 13.8111 15.0314 14.1103 16.1474H35.0728C35.4292 16.1474 35.771 16.289 36.023 16.541C36.275 16.793 36.4166 17.1348 36.4166 17.4912Z" fill="white"/>
</svg>
