<svg width="31" height="31" viewBox="0 0 31 31" fill="none" xmlns="http://www.w3.org/2000/svg">
<path fill-rule="evenodd" clip-rule="evenodd" d="M13.8735 5.19295e-08C11.6572 0.000240037 9.47313 0.531414 7.50423 1.54906C5.53533 2.5667 3.83886 4.0412 2.55684 5.84911C1.27482 7.65703 0.444545 9.74576 0.135528 11.9405C-0.173489 14.1351 0.0477419 16.3719 0.7807 18.4636C1.51366 20.5552 2.73702 22.4408 4.34836 23.9626C5.95971 25.4843 7.91215 26.5979 10.0423 27.2101C12.1724 27.8224 14.4181 27.9154 16.5916 27.4815C18.765 27.0475 20.8029 26.0992 22.5346 24.716L28.2002 30.3816C28.491 30.6625 28.8804 30.8178 29.2846 30.8143C29.6888 30.8108 30.0755 30.6487 30.3613 30.3628C30.6472 30.077 30.8093 29.6903 30.8128 29.2861C30.8163 28.8819 30.661 28.4925 30.3801 28.2017L24.7145 22.5361C26.3456 20.4947 27.3671 18.0342 27.6614 15.4379C27.9557 12.8416 27.5109 10.2149 26.3782 7.86018C25.2455 5.50549 23.4709 3.51851 21.2586 2.12795C19.0464 0.737392 16.4865 -0.000225974 13.8735 5.19295e-08ZM4.6235 13.875C4.6235 12.6603 4.86276 11.4574 5.32761 10.3352C5.79247 9.21292 6.47382 8.1932 7.33276 7.33426C8.1917 6.47532 9.21142 5.79397 10.3337 5.32911C11.4559 4.86426 12.6588 4.625 13.8735 4.625C15.0882 4.625 16.2911 4.86426 17.4133 5.32911C18.5356 5.79397 19.5553 6.47532 20.4142 7.33426C21.2732 8.1932 21.9545 9.21292 22.4194 10.3352C22.8842 11.4574 23.1235 12.6603 23.1235 13.875C23.1235 16.3283 22.1489 18.681 20.4142 20.4157C18.6795 22.1504 16.3268 23.125 13.8735 23.125C11.4202 23.125 9.06747 22.1504 7.33276 20.4157C5.59805 18.681 4.6235 16.3283 4.6235 13.875Z" fill="white"/>
</svg>
