<svg width="24" height="24" viewBox="0 0 24 24" fill="none" xmlns="http://www.w3.org/2000/svg">
<path d="M7.99993 16.2099V7.78995C7.99945 7.45753 8.09311 7.13178 8.27009 6.85039C8.44706 6.56901 8.7001 6.34349 8.99993 6.19995C9.35567 6.03191 9.75146 5.9672 10.1422 6.01316C10.5329 6.05913 10.9029 6.21394 11.2099 6.45995L16.3099 10.6699C16.5006 10.8352 16.6534 11.0394 16.7582 11.2689C16.863 11.4984 16.9172 11.7477 16.9172 11.9999C16.9172 12.2522 16.863 12.5015 16.7582 12.731C16.6534 12.9605 16.5006 13.1647 16.3099 13.3299L11.2099 17.5399C10.9029 17.786 10.5329 17.9408 10.1422 17.9867C9.75146 18.0327 9.35567 17.968 8.99993 17.7999C8.7001 17.6564 8.44706 17.4309 8.27009 17.1495C8.09311 16.8681 7.99945 16.5424 7.99993 16.2099Z" fill="white"/>
</svg>
