<svg width="24" height="24" viewBox="0 0 24 24" fill="none" xmlns="http://www.w3.org/2000/svg">
<path d="M16.0001 7.79005V16.2101C16.0006 16.5425 15.9069 16.8682 15.7299 17.1496C15.5529 17.431 15.2999 17.6565 15.0001 17.8001C14.6443 17.9681 14.2485 18.0328 13.8578 17.9868C13.4671 17.9409 13.0971 17.7861 12.7901 17.5401L7.69007 13.3301C7.49944 13.1648 7.34656 12.9606 7.24177 12.7311C7.13699 12.5016 7.08276 12.2523 7.08276 12.0001C7.08276 11.7478 7.13699 11.4985 7.24177 11.269C7.34656 11.0395 7.49944 10.8353 7.69007 10.6701L12.7901 6.46005C13.0971 6.21405 13.4671 6.05924 13.8578 6.01327C14.2485 5.9673 14.6443 6.03202 15.0001 6.20005C15.2999 6.34359 15.5529 6.56911 15.7299 6.8505C15.9069 7.13189 16.0006 7.45764 16.0001 7.79005Z" fill="white"/>
</svg>
