<svg width="20" height="20" viewBox="0 0 20 20" fill="none" xmlns="http://www.w3.org/2000/svg">
<g clip-path="url(#clip0_72_2)">
<path d="M10 19.25C4.8995 19.25 0.75 15.1005 0.75 10C0.75 4.8995 4.8995 0.75 10 0.75C15.1005 0.75 19.25 4.8995 19.25 10C19.25 15.1005 15.1005 19.25 10 19.25ZM10 1.25C5.1755 1.25 1.25 5.1755 1.25 10C1.25 14.8245 5.1755 18.75 10 18.75C14.8245 18.75 18.75 14.8245 18.75 10C18.75 5.1755 14.8245 1.25 10 1.25Z" fill="black"/>
<path d="M5.73849 14.5055L5.31299 14.243C5.80547 13.4409 6.49591 12.7788 7.31801 12.3205C8.1401 11.8621 9.06624 11.6228 10.0075 11.6255C11.9195 11.6255 13.668 12.594 14.685 14.2155L14.2615 14.481C13.8118 13.7585 13.185 13.1629 12.4405 12.7507C11.696 12.3384 10.8585 12.1232 10.0075 12.1255C9.15153 12.1228 8.30927 12.3402 7.56165 12.757C6.81402 13.1738 6.18619 13.776 5.73849 14.5055Z" fill="black"/>
<path d="M7.33301 8.1545C7.60915 8.1545 7.83301 7.93064 7.83301 7.6545C7.83301 7.37835 7.60915 7.1545 7.33301 7.1545C7.05687 7.1545 6.83301 7.37835 6.83301 7.6545C6.83301 7.93064 7.05687 8.1545 7.33301 8.1545Z" fill="black"/>
<path d="M12.6665 8.1545C12.9426 8.1545 13.1665 7.93064 13.1665 7.6545C13.1665 7.37835 12.9426 7.1545 12.6665 7.1545C12.3904 7.1545 12.1665 7.37835 12.1665 7.6545C12.1665 7.93064 12.3904 8.1545 12.6665 8.1545Z" fill="black"/>
</g>
<defs>
<clipPath id="clip0_72_2">
<rect width="20" height="20" fill="white"/>
</clipPath>
</defs>
</svg>
