<svg width="40" height="30" viewBox="0 0 40 30" fill="none" xmlns="http://www.w3.org/2000/svg">
<path d="M9.09091 28.3333C9.09091 28.8056 8.91636 29.2017 8.56727 29.5217C8.21818 29.8417 7.78667 30.0011 7.27273 30H1.81818C1.30303 30 0.871515 29.84 0.523636 29.52C0.175758 29.2 0.00121212 28.8044 0 28.3333V23.3333C0 22.8611 0.174545 22.4656 0.523636 22.1467C0.872727 21.8278 1.30424 21.6678 1.81818 21.6667C2.33212 21.6656 2.76424 21.8256 3.11455 22.1467C3.46485 22.4678 3.63879 22.8633 3.63636 23.3333V26.6667H7.27273C7.78788 26.6667 8.22 26.8267 8.56909 27.1467C8.91818 27.4667 9.09212 27.8622 9.09091 28.3333ZM38.1818 21.6667C38.697 21.6667 39.1291 21.8267 39.4782 22.1467C39.8273 22.4667 40.0012 22.8622 40 23.3333V28.3333C40 28.8056 39.8254 29.2017 39.4764 29.5217C39.1273 29.8417 38.6958 30.0011 38.1818 30H32.7273C32.2121 30 31.7806 29.84 31.4327 29.52C31.0848 29.2 30.9103 28.8044 30.9091 28.3333C30.9079 27.8622 31.0824 27.4667 31.4327 27.1467C31.783 26.8267 32.2145 26.6667 32.7273 26.6667H36.3636V23.3333C36.3636 22.8611 36.5382 22.4656 36.8873 22.1467C37.2364 21.8278 37.6679 21.6678 38.1818 21.6667ZM6.36364 25C6.12121 25 5.90909 24.9167 5.72727 24.75C5.54545 24.5833 5.45454 24.3889 5.45454 24.1667V5.83333C5.45454 5.61111 5.54545 5.41667 5.72727 5.25C5.90909 5.08333 6.12121 5 6.36364 5H8.18182C8.42424 5 8.63636 5.08333 8.81818 5.25C9 5.41667 9.09091 5.61111 9.09091 5.83333V24.1667C9.09091 24.3889 9 24.5833 8.81818 24.75C8.63636 24.9167 8.42424 25 8.18182 25H6.36364ZM11.8182 25C11.5758 25 11.3636 24.9167 11.1818 24.75C11 24.5833 10.9091 24.3889 10.9091 24.1667V5.83333C10.9091 5.61111 11 5.41667 11.1818 5.25C11.3636 5.08333 11.5758 5 11.8182 5C12.0606 5 12.2727 5.08333 12.4545 5.25C12.6364 5.41667 12.7273 5.61111 12.7273 5.83333V24.1667C12.7273 24.3889 12.6364 24.5833 12.4545 24.75C12.2727 24.9167 12.0606 25 11.8182 25ZM17.2727 25C17.0303 25 16.8182 24.9167 16.6364 24.75C16.4545 24.5833 16.3636 24.3889 16.3636 24.1667V5.83333C16.3636 5.61111 16.4545 5.41667 16.6364 5.25C16.8182 5.08333 17.0303 5 17.2727 5H19.0909C19.3333 5 19.5455 5.08333 19.7273 5.25C19.9091 5.41667 20 5.61111 20 5.83333V24.1667C20 24.3889 19.9091 24.5833 19.7273 24.75C19.5455 24.9167 19.3333 25 19.0909 25H17.2727ZM22.7273 25C22.4848 25 22.2727 24.9167 22.0909 24.75C21.9091 24.5833 21.8182 24.3889 21.8182 24.1667V5.83333C21.8182 5.61111 21.9091 5.41667 22.0909 5.25C22.2727 5.08333 22.4848 5 22.7273 5H26.3636C26.6061 5 26.8182 5.08333 27 5.25C27.1818 5.41667 27.2727 5.61111 27.2727 5.83333V24.1667C27.2727 24.3889 27.1818 24.5833 27 24.75C26.8182 24.9167 26.6061 25 26.3636 25H22.7273ZM30 25C29.7576 25 29.5454 24.9167 29.3636 24.75C29.1818 24.5833 29.0909 24.3889 29.0909 24.1667V5.83333C29.0909 5.61111 29.1818 5.41667 29.3636 5.25C29.5454 5.08333 29.7576 5 30 5C30.2424 5 30.4545 5.08333 30.6364 5.25C30.8182 5.41667 30.9091 5.61111 30.9091 5.83333V24.1667C30.9091 24.3889 30.8182 24.5833 30.6364 24.75C30.4545 24.9167 30.2424 25 30 25ZM33.6364 25C33.3939 25 33.1818 24.9167 33 24.75C32.8182 24.5833 32.7273 24.3889 32.7273 24.1667V5.83333C32.7273 5.61111 32.8182 5.41667 33 5.25C33.1818 5.08333 33.3939 5 33.6364 5C33.8788 5 34.0909 5.08333 34.2727 5.25C34.4545 5.41667 34.5454 5.61111 34.5454 5.83333V24.1667C34.5454 24.3889 34.4545 24.5833 34.2727 24.75C34.0909 24.9167 33.8788 25 33.6364 25ZM9.09091 1.66667C9.09091 2.13889 8.91636 2.535 8.56727 2.855C8.21818 3.175 7.78667 3.33444 7.27273 3.33333H3.63636V6.66667C3.63636 7.13889 3.46182 7.535 3.11273 7.855C2.76364 8.175 2.33212 8.33444 1.81818 8.33333C1.30424 8.33222 0.872727 8.17222 0.523636 7.85333C0.174545 7.53444 0 7.13889 0 6.66667V1.66667C0 1.19444 0.174545 0.798889 0.523636 0.48C0.872727 0.161111 1.30424 0.00111111 1.81818 0H7.27273C7.78788 0 8.22 0.16 8.56909 0.48C8.91818 0.8 9.09212 1.19556 9.09091 1.66667ZM30.9091 1.66667C30.9091 1.19444 31.0836 0.798889 31.4327 0.48C31.7818 0.161111 32.2133 0.00111111 32.7273 0H38.1818C38.697 0 39.1291 0.16 39.4782 0.48C39.8273 0.8 40.0012 1.19556 40 1.66667V6.66667C40 7.13889 39.8254 7.535 39.4764 7.855C39.1273 8.175 38.6958 8.33444 38.1818 8.33333C37.6679 8.33222 37.2364 8.17222 36.8873 7.85333C36.5382 7.53444 36.3636 7.13889 36.3636 6.66667V3.33333H32.7273C32.2121 3.33333 31.7806 3.17333 31.4327 2.85333C31.0848 2.53333 30.9103 2.13778 30.9091 1.66667Z" fill="black" fill-opacity="0.7"/>
</svg>
