<svg width="105" height="105" viewBox="0 0 105 105" fill="none" xmlns="http://www.w3.org/2000/svg">
<g clip-path="url(#clip0_802_523)">
<path d="M29.5312 82.0313H75.4688M29.5312 68.9063H75.4688M68.9062 3.28131V26.2501C68.9062 27.1203 69.2519 27.9549 69.8673 28.5702C70.4827 29.1856 71.3173 29.5313 72.1875 29.5313H95.1562M95.1562 27.5626V98.4376C95.1562 99.3078 94.8106 100.142 94.1952 100.758C93.5798 101.373 92.7452 101.719 91.875 101.719H13.125C12.2548 101.719 11.4202 101.373 10.8048 100.758C10.1895 100.142 9.84375 99.3078 9.84375 98.4376V6.56256C9.84375 5.69231 10.1895 4.85772 10.8048 4.24236C11.4202 3.62701 12.2548 3.28131 13.125 3.28131H71.2031C71.6428 3.27874 72.0785 3.36455 72.4843 3.53365C72.8902 3.70275 73.2579 3.95169 73.5656 4.26568L94.2375 25.2657C94.8317 25.8821 95.1614 26.7064 95.1562 27.5626Z" stroke="black" stroke-width="7" stroke-linecap="round"/>
<path d="M75.4688 45.9375H29.5312C27.7191 45.9375 26.25 47.4066 26.25 49.2188V55.7812C26.25 57.5934 27.7191 59.0625 29.5312 59.0625H75.4688C77.2809 59.0625 78.75 57.5934 78.75 55.7812V49.2188C78.75 47.4066 77.2809 45.9375 75.4688 45.9375Z" fill="black"/>
</g>
<defs>
<clipPath id="clip0_802_523">
<rect width="105" height="105" fill="white"/>
</clipPath>
</defs>
</svg>
