<svg width="42" height="31" viewBox="0 0 42 31" fill="none" xmlns="http://www.w3.org/2000/svg">
<path d="M1 11.3571H41M9.88889 21.7143H9.91111M18.7778 21.7143H23.2222M1 7.21429C1 5.56615 1.70238 3.98553 2.95262 2.82012C4.20286 1.65472 5.89856 1 7.66667 1H34.3333C36.1014 1 37.7971 1.65472 39.0474 2.82012C40.2976 3.98553 41 5.56615 41 7.21429V23.7857C41 25.4338 40.2976 27.0145 39.0474 28.1799C37.7971 29.3453 36.1014 30 34.3333 30H7.66667C5.89856 30 4.20286 29.3453 2.95262 28.1799C1.70238 27.0145 1 25.4338 1 23.7857V7.21429Z" stroke="black" stroke-opacity="0.7" stroke-width="2" stroke-linecap="round" stroke-linejoin="round"/>
</svg>
