<svg width="40" height="40" viewBox="0 0 40 40" fill="none" xmlns="http://www.w3.org/2000/svg">
<path fill-rule="evenodd" clip-rule="evenodd" d="M36.2017 13.2047C36.9538 13.9568 37.6454 14.6484 38.1767 15.2755C38.7496 15.9484 39.3141 16.7464 39.6454 17.763C40.1182 19.2165 40.1182 20.7825 39.6454 22.236C39.3141 23.2547 38.7496 24.0526 38.1767 24.7255C37.6454 25.3505 36.9538 26.0443 36.2017 26.7964L26.7957 36.2027C26.1308 36.8871 25.44 37.5459 24.7249 38.1777C24.052 38.7506 23.252 39.3152 22.2354 39.6464C20.7817 40.1179 19.2162 40.1179 17.7626 39.6464C16.7459 39.3152 15.9501 38.7506 15.273 38.1777C14.648 37.6464 13.9564 36.9548 13.2043 36.2027L3.7983 26.7964C3.11388 26.1315 2.45508 25.4407 1.82335 24.7255C1.25044 24.0526 0.685875 23.2547 0.354632 22.236C-0.118211 20.7825 -0.118211 19.2165 0.354632 17.763C0.685875 16.7464 1.25044 15.9505 1.82335 15.2755C2.3525 14.6505 3.04415 13.9568 3.7983 13.2047L13.2043 3.7984C13.9564 3.04632 14.648 2.35465 15.273 1.8234C15.948 1.25048 16.7459 0.685893 17.7626 0.354642C19.216 -0.118214 20.7819 -0.118214 22.2354 0.354642C23.2541 0.685893 24.052 1.25048 24.7249 1.8234C25.3499 2.35465 26.0415 3.04423 26.7957 3.7984L36.2017 13.2047ZM31.3206 12.7109L33.9309 15.3214C35.5705 16.9589 36.3892 17.7797 36.6954 18.7234C36.9663 19.5526 36.9663 20.4485 36.6954 21.2776C36.3892 22.2235 35.5705 23.0422 33.9309 24.6797L31.3206 27.2901H28.1686C27.9313 27.2872 27.6975 27.2336 27.4827 27.133C27.2678 27.0324 27.0769 26.8871 26.9228 26.7068L22.8687 22.2485C22.5055 21.8485 22.0626 21.5289 21.5686 21.3101C21.0746 21.0914 20.5403 20.9784 20 20.9784C19.4597 20.9784 18.9254 21.0914 18.4314 21.3101C17.9374 21.5289 17.4945 21.8485 17.1313 22.2485L13.0752 26.7068C12.9212 26.8868 12.7307 27.032 12.5162 27.1326C12.3017 27.2332 12.0683 27.2869 11.8314 27.2901H8.67735L6.067 24.6797C4.42954 23.0422 3.61081 22.2214 3.30456 21.2776C3.03718 20.4472 3.03718 19.5538 3.30456 18.7234C3.61081 17.7776 4.42954 16.9589 6.067 15.3214L8.67735 12.7109H11.8335C12.2689 12.7109 12.721 12.8984 13.0772 13.2943L17.1334 17.7526C17.4966 18.1526 17.9394 18.4722 18.4335 18.6909C18.9275 18.9097 19.4618 19.0226 20.0021 19.0226C20.5424 19.0226 21.0767 18.9097 21.5707 18.6909C22.0647 18.4722 22.5076 18.1526 22.8708 17.7526L26.9248 13.2943C27.079 13.114 27.2699 12.9687 27.4847 12.8681C27.6996 12.7675 27.9334 12.7139 28.1706 12.7109H31.3206ZM28.2186 9.60884H28.1686C26.8103 9.60884 25.5394 10.2047 24.627 11.2068L20.575 15.6672C20.5027 15.7475 20.4144 15.8117 20.3157 15.8557C20.217 15.8996 20.1101 15.9223 20.0021 15.9223C19.894 15.9223 19.7872 15.8996 19.6885 15.8557C19.5898 15.8117 19.5015 15.7475 19.4292 15.6672L15.3709 11.2088C14.9251 10.7096 14.3796 10.3092 13.7696 10.0337C13.1597 9.75808 12.4987 9.61337 11.8294 9.60884H11.7794L15.3209 6.06716C16.9584 4.42965 17.7792 3.6109 18.7209 3.30465C19.5542 3.03382 20.4479 3.03382 21.2771 3.30465C22.2229 3.6109 23.0416 4.42965 24.6791 6.06924L28.2186 9.60884ZM28.1686 30.3922H28.2186L24.677 33.9339C23.0416 35.5714 22.2229 36.3902 21.2771 36.6964C20.4479 36.9673 19.5521 36.9673 18.7209 36.6964C17.7771 36.3902 16.9584 35.5714 15.3209 33.9318L11.7794 30.3901H11.8314C13.1897 30.3901 14.4585 29.7964 15.3709 28.7943L19.4271 24.3339C19.4994 24.2536 19.5877 24.1894 19.6864 24.1454C19.7851 24.1015 19.892 24.0788 20 24.0788C20.108 24.0788 20.2149 24.1015 20.3136 24.1454C20.4123 24.1894 20.5006 24.2536 20.5729 24.3339L24.6291 28.7922C25.0749 29.2915 25.6204 29.6918 26.2304 29.9674C26.8403 30.243 27.5013 30.3877 28.1706 30.3922" fill="black" fill-opacity="0.7"/>
</svg>
