<?xml version="1.0" standalone="no"?>
<!DOCTYPE svg PUBLIC "-//W3C//DTD SVG 20010904//EN"
 "http://www.w3.org/TR/2001/REC-SVG-20010904/DTD/svg10.dtd">
<svg version="1.0" xmlns="http://www.w3.org/2000/svg"
 width="1024.000000pt" height="1024.000000pt" viewBox="0 0 1024.000000 1024.000000"
 preserveAspectRatio="xMidYMid meet">

<g transform="translate(0.000000,1024.000000) scale(0.100000,-0.100000)"
fill="#000000" stroke="none">
<path d="M330 8755 l0 -1155 1155 0 1155 0 0 1155 0 1155 -1155 0 -1155 0 0
-1155z m1980 0 l0 -825 -825 0 -825 0 0 825 0 825 825 0 825 0 0 -825z"/>
<path d="M990 8755 l0 -495 495 0 495 0 0 495 0 495 -495 0 -495 0 0 -495z"/>
<path d="M2999 9881 l-29 -29 0 -267 c0 -278 5 -313 45 -329 9 -3 61 -6 116
-6 104 0 150 -13 163 -45 3 -9 6 -66 6 -126 0 -103 -1 -111 -25 -134 -23 -24
-31 -25 -135 -25 -109 0 -112 -1 -140 -28 -26 -27 -28 -33 -29 -130 -2 -106
11 -153 44 -166 9 -3 133 -6 274 -6 266 0 313 -6 331 -40 6 -12 10 -191 10
-460 l0 -441 -25 -24 c-23 -24 -31 -25 -134 -25 -102 0 -112 2 -138 24 -27 24
-28 28 -33 144 -5 112 -7 121 -30 141 -23 19 -35 21 -138 19 -111 -3 -114 -4
-138 -31 l-24 -28 0 -273 c0 -255 -1 -275 -19 -297 l-19 -24 -452 -5 -452 -5
-24 -28 c-22 -26 -24 -36 -24 -138 0 -103 -1 -111 -25 -134 -22 -23 -31 -25
-129 -25 -164 0 -176 12 -176 174 0 87 -3 108 -19 127 l-19 24 -285 0 -285 0
-26 -24 c-25 -23 -26 -30 -26 -128 0 -108 -13 -154 -45 -167 -9 -3 -65 -6
-124 -6 -104 0 -109 1 -135 26 -25 25 -26 32 -26 130 0 160 -13 174 -166 174
-95 0 -128 -8 -151 -39 -16 -21 -19 -1212 -3 -1242 20 -36 63 -49 170 -49 94
0 103 -2 125 -25 23 -22 25 -31 25 -124 0 -109 -9 -144 -39 -161 -12 -6 -70
-12 -131 -13 -105 -2 -111 -3 -135 -29 -24 -26 -25 -34 -25 -137 0 -102 2
-112 24 -138 l24 -28 280 0 280 0 26 24 26 24 0 273 c0 179 -4 281 -11 297
-16 36 -53 48 -133 47 -127 -3 -136 -1 -161 25 l-25 24 0 268 c0 347 -2 343
172 343 76 0 131 -18 147 -48 6 -12 11 -68 11 -126 0 -96 2 -107 24 -133 24
-28 26 -28 134 -28 97 0 114 3 139 21 l28 21 5 279 c5 298 8 316 56 334 14 6
61 10 105 10 80 0 139 -16 155 -41 5 -8 11 -215 14 -461 6 -541 -12 -489 171
-497 158 -8 159 -9 159 -161 0 -93 -3 -111 -20 -133 l-21 -26 -285 -3 -286 -3
-24 -28 -24 -28 0 -603 c0 -723 14 -656 -141 -656 -108 0 -160 -14 -178 -48
-6 -12 -11 -69 -11 -127 0 -104 1 -107 29 -136 28 -28 33 -29 124 -29 110 0
155 13 168 47 5 13 9 67 9 119 0 99 14 146 45 158 9 3 355 6 769 6 500 0 763
4 783 10 17 6 35 22 42 36 7 17 11 110 11 279 0 139 4 265 9 278 20 52 34 57
155 57 99 0 117 -3 139 -20 l26 -21 3 -285 3 -286 28 -24 c26 -22 36 -24 136
-24 94 0 112 -3 135 -21 l26 -20 0 -444 0 -444 -24 -28 c-23 -26 -30 -28 -112
-32 -169 -7 -194 17 -194 187 0 135 -6 142 -138 143 -112 0 -161 14 -179 49
-8 15 -13 66 -13 130 -1 117 -8 135 -61 150 -45 13 -484 13 -529 0 -61 -18
-72 -45 -68 -171 3 -107 4 -112 31 -135 l28 -24 275 0 275 0 24 -25 c24 -23
25 -31 25 -134 0 -102 -2 -112 -24 -138 l-24 -28 -744 -3 c-408 -2 -758 0
-777 3 -18 4 -44 17 -57 30 -22 23 -24 31 -24 135 0 104 -1 112 -25 135 -23
24 -30 25 -140 25 -110 0 -117 -1 -140 -25 -23 -22 -25 -31 -25 -127 0 -57 -3
-113 -6 -125 -10 -37 -61 -53 -173 -53 -95 0 -104 -2 -126 -25 -23 -22 -25
-31 -25 -129 0 -163 13 -176 166 -176 99 0 146 13 158 45 3 9 6 65 6 124 0
101 2 110 25 135 23 25 27 26 140 26 110 0 117 -1 140 -25 24 -23 25 -31 25
-134 0 -100 2 -112 23 -136 12 -14 31 -28 42 -30 11 -2 360 -4 776 -4 729 -1
758 -2 780 -20 l24 -19 5 -452 5 -452 28 -24 c26 -22 36 -24 138 -24 103 0
111 -1 134 -25 23 -22 25 -31 25 -129 0 -164 -12 -176 -174 -176 -87 0 -108
-3 -127 -19 l-24 -19 0 -285 0 -285 24 -26 c24 -25 29 -26 136 -26 98 0 116 3
139 21 25 20 26 24 26 120 0 112 18 173 53 183 12 3 68 6 125 6 96 0 105 -2
127 -25 l25 -24 0 -279 0 -279 -26 -27 -27 -26 -268 0 c-284 0 -308 -3 -328
-47 -15 -32 -14 -208 1 -236 25 -47 19 -46 485 -47 l442 0 28 24 28 24 0 440
c0 540 14 495 -157 502 -138 6 -164 18 -173 82 -3 24 -5 300 -3 615 l3 571 24
26 c24 25 29 26 137 26 157 0 157 0 164 -160 5 -121 5 -122 35 -146 28 -24 36
-25 142 -22 169 4 158 -18 158 327 l0 279 -24 26 -24 26 -264 0 c-303 0 -323
4 -343 65 -8 23 -11 71 -8 126 4 76 7 92 28 114 22 24 29 25 129 25 119 0 169
18 173 62 1 13 2 32 3 43 1 11 3 57 4 103 2 118 7 122 159 122 158 0 159 0
164 -164 4 -115 5 -119 32 -142 25 -22 36 -24 135 -24 93 0 112 -3 134 -20 24
-19 25 -25 29 -141 3 -119 3 -121 32 -145 l28 -25 279 3 c345 4 322 -8 329
167 7 161 7 161 155 161 98 0 116 -3 139 -21 l26 -20 0 -265 c0 -362 -2 -358
182 -352 106 3 111 4 134 31 22 26 24 36 24 136 0 94 3 112 21 135 20 25 23
26 133 26 99 0 117 -3 140 -21 25 -19 26 -25 26 -112 0 -107 10 -151 41 -178
19 -16 38 -19 130 -19 100 0 110 -2 136 -24 26 -23 28 -30 31 -113 4 -104 -11
-162 -48 -180 -15 -8 -66 -13 -131 -13 -99 0 -107 -2 -129 -25 -44 -46 -40
-236 5 -281 22 -22 32 -24 134 -24 101 0 112 -2 138 -24 24 -21 28 -32 31 -95
6 -99 -5 -159 -33 -187 l-24 -24 -431 0 c-453 0 -477 2 -494 45 -3 9 -6 133
-6 274 0 277 -5 316 -47 332 -13 5 -64 9 -112 9 -97 0 -146 12 -161 40 -6 10
-10 61 -10 113 0 102 -12 152 -40 167 -20 11 -228 14 -255 4 -32 -13 -45 -59
-45 -166 -1 -146 -14 -158 -169 -158 -54 0 -107 -3 -116 -6 -32 -13 -45 -59
-45 -166 -1 -65 -5 -109 -13 -119 -28 -36 -51 -39 -325 -39 -340 0 -317 12
-317 -160 0 -122 0 -122 29 -146 l28 -25 279 3 c346 4 322 -9 329 169 7 171
-17 159 326 159 344 0 323 11 326 -163 3 -116 4 -119 31 -143 26 -22 36 -24
136 -24 94 0 112 -3 135 -21 25 -20 26 -25 26 -118 0 -173 17 -191 173 -191
90 0 108 -3 131 -21 25 -20 26 -24 26 -120 0 -115 15 -164 55 -179 15 -6 71
-10 126 -10 98 0 101 1 130 29 29 29 29 31 29 141 0 104 1 112 25 135 23 24
31 25 134 25 101 0 112 -2 137 -24 27 -22 28 -28 33 -146 8 -159 8 -160 163
-160 108 0 110 0 139 29 28 29 29 32 29 131 0 105 -13 151 -45 164 -9 3 -61 6
-116 6 -104 0 -150 13 -163 45 -3 9 -6 66 -6 126 0 103 1 111 25 134 l24 25
275 0 275 0 28 -24 28 -24 5 -287 c5 -287 5 -287 29 -306 22 -18 48 -19 622
-19 417 0 605 -3 622 -11 44 -20 47 -44 47 -328 0 -334 -8 -314 140 -319 117
-4 142 0 170 30 17 19 20 35 20 125 0 108 13 154 45 167 9 3 64 6 122 6 102 0
105 -1 134 -29 29 -29 29 -31 29 -141 0 -105 1 -112 25 -136 25 -25 29 -26
146 -22 158 4 159 5 159 158 0 101 2 110 25 138 25 30 26 30 146 34 171 4 159
-20 159 328 0 348 12 323 -160 330 -119 5 -122 6 -146 34 -24 27 -25 34 -23
142 1 113 2 114 29 134 24 17 44 20 130 20 105 0 151 13 164 45 3 9 6 65 6
124 0 94 -3 112 -20 134 l-21 26 -285 3 -286 3 -24 28 c-22 26 -24 37 -24 128
0 104 13 150 45 163 9 3 62 6 116 6 100 0 132 8 156 39 9 12 12 89 13 284 0
280 5 315 45 331 9 3 62 6 116 6 100 0 132 8 156 39 9 12 12 91 13 292 0 346
7 329 -141 329 -108 0 -160 14 -178 48 -6 12 -11 68 -11 126 0 96 -2 107 -24
133 l-24 28 -445 0 -445 0 -26 -24 c-25 -24 -26 -29 -26 -142 0 -161 2 -163
147 -167 194 -5 183 16 183 -340 0 -336 -10 -315 146 -320 60 -2 121 -8 136
-13 46 -18 49 -44 46 -333 l-3 -268 -29 -25 c-28 -24 -34 -25 -137 -21 -97 3
-110 5 -132 26 -24 23 -26 31 -29 142 -4 159 -2 157 -158 162 -109 3 -121 5
-144 27 l-25 24 -3 282 c-3 259 -5 285 -22 303 -17 20 -31 21 -301 24 l-283 3
-26 24 c-25 24 -26 29 -26 137 0 157 0 157 160 164 119 5 122 6 147 34 24 28
25 34 21 142 -3 102 -5 116 -26 136 -21 21 -31 23 -136 23 -107 0 -116 -2
-140 -24 -25 -23 -26 -30 -26 -130 0 -167 -15 -181 -195 -181 -83 0 -94 -2
-113 -23 -20 -21 -22 -34 -22 -123 0 -121 -17 -163 -69 -177 -18 -4 -147 -7
-286 -5 -252 3 -254 3 -279 27 -25 23 -26 29 -26 136 0 97 3 116 20 138 19 24
25 25 141 29 119 3 121 3 146 32 24 28 25 34 21 142 -4 155 -7 158 -166 162
-160 5 -162 7 -162 157 0 98 3 116 20 138 l21 26 450 3 451 3 24 30 c22 27 24
39 24 137 0 97 2 109 23 132 21 24 28 26 133 27 162 2 174 -10 174 -175 0
-148 15 -161 185 -154 92 3 98 5 121 31 l24 28 0 442 c0 243 4 447 8 454 19
31 58 38 171 33 148 -7 151 -10 151 -156 0 -57 5 -114 11 -126 16 -37 58 -49
162 -47 144 2 157 -10 157 -158 0 -80 -4 -104 -20 -130 -11 -18 -25 -33 -32
-33 -215 -5 -216 -5 -245 -26 -27 -21 -28 -24 -31 -130 -3 -131 6 -160 57
-175 23 -6 130 -9 293 -7 256 3 257 3 282 27 25 23 26 30 26 127 0 112 8 147
39 164 12 6 70 12 131 13 105 2 111 3 135 29 24 26 25 34 25 137 0 102 -2 112
-24 138 l-24 28 -287 5 c-287 5 -287 5 -306 29 -18 22 -19 42 -19 298 l0 275
-29 29 -29 29 -261 0 c-143 0 -271 -4 -284 -9 -51 -20 -57 -35 -57 -147 0
-110 -12 -155 -47 -169 -10 -3 -65 -6 -123 -6 -85 1 -110 5 -130 20 l-25 18
-3 445 c-2 438 -2 445 19 472 l20 26 257 0 c146 0 273 5 294 10 70 20 68 5 68
493 l0 439 -28 28 c-27 26 -33 28 -130 29 -112 2 -158 -12 -167 -52 -2 -12 -6
-68 -7 -124 -3 -92 -5 -104 -27 -127 -23 -25 -30 -26 -128 -26 -108 0 -154
-13 -167 -45 -3 -9 -6 -59 -6 -110 0 -160 -13 -175 -149 -175 -106 0 -156 -12
-171 -40 -6 -11 -10 -128 -10 -279 0 -143 -4 -271 -9 -284 -19 -50 -36 -57
-134 -57 -106 0 -162 -13 -177 -40 -6 -11 -10 -122 -10 -278 0 -267 -6 -314
-40 -332 -10 -6 -67 -10 -125 -10 -101 0 -140 8 -157 34 -4 6 -8 210 -8 452 0
534 -11 494 133 494 182 0 200 17 195 180 -3 108 -4 113 -31 136 -26 22 -36
24 -136 24 -167 0 -155 -24 -161 325 l-5 287 -28 24 c-26 22 -36 24 -138 24
-103 0 -111 1 -134 25 -24 23 -25 31 -25 135 0 110 0 112 29 141 29 29 31 29
141 29 105 0 112 1 136 25 25 25 26 29 22 141 -3 115 -3 116 -33 140 -27 22
-39 24 -136 24 -151 0 -152 1 -159 160 -5 118 -6 122 -33 146 -26 22 -37 24
-130 24 -84 0 -108 -4 -134 -20 l-33 -20 0 -105 c0 -126 1 -117 -12 -132 -6
-7 -7 -13 -3 -13 4 0 -4 -9 -18 -20 -22 -17 -40 -20 -137 -20 -104 0 -112 1
-135 25 -18 17 -25 35 -25 62 -3 492 2 847 12 863 20 31 54 40 153 40 152 0
165 14 165 173 1 161 -7 157 330 157 281 0 311 5 324 52 11 44 7 538 -6 561
-24 46 -29 46 -319 47 -265 0 -277 -1 -303 -21 l-26 -20 0 -265 c0 -281 -6
-320 -48 -343 -12 -6 -68 -11 -126 -11 -96 0 -107 -2 -132 -24 -27 -22 -28
-28 -33 -146 -8 -159 -9 -160 -161 -160 -152 0 -153 1 -160 158 -5 110 -7 123
-29 146 -24 25 -29 26 -137 26 -105 0 -115 -2 -141 -24 -27 -24 -28 -28 -33
-146 -7 -172 18 -160 -327 -160 l-275 0 -28 -30 -29 -31 -1 -272 c0 -343 10
-321 -153 -325 -108 -2 -117 -1 -142 21 l-27 23 1 258 c1 164 -2 270 -9 291
-18 54 -45 65 -160 65 -96 0 -135 9 -152 34 -4 6 -8 138 -8 294 l0 283 25 24
c22 23 31 25 125 25 111 0 156 -14 164 -53 3 -12 7 -68 8 -124 3 -91 6 -105
28 -128 22 -24 28 -25 136 -25 105 0 115 2 141 24 l28 24 0 280 0 280 -24 26
-24 26 -280 0 -279 0 -29 -29 c-29 -29 -29 -31 -29 -141 0 -104 -1 -112 -25
-135 -23 -24 -31 -25 -135 -25 -110 0 -112 0 -141 -29 l-29 -29 0 -277 0 -276
-25 -24 c-23 -24 -31 -25 -134 -25 -101 0 -112 2 -137 24 -27 22 -28 28 -33
146 -8 160 -8 160 -165 160 -108 0 -113 1 -137 26 -23 24 -24 33 -24 141 0
113 0 115 28 139 26 22 36 24 136 24 94 0 112 3 135 21 25 20 26 23 26 138 0
105 -2 121 -21 145 l-20 26 -280 0 -281 0 -29 -29z m1250 -976 c38 -19 40 -26
42 -148 2 -157 -8 -167 -164 -167 -90 0 -108 3 -131 21 -25 20 -26 23 -26 140
0 114 1 121 25 144 22 23 31 25 125 25 69 0 110 -5 129 -15z m1650 -330 c16
-8 31 -22 35 -30 3 -9 6 -66 6 -126 0 -103 -1 -111 -25 -134 -22 -23 -31 -25
-124 -25 -184 0 -181 6 -181 -343 0 -335 11 -314 -160 -319 -156 -4 -163 -10
-169 -134 -4 -103 4 -149 30 -175 18 -18 35 -19 302 -19 263 0 284 2 307 20
l25 19 3 278 c1 177 6 286 13 299 17 34 53 44 150 44 94 0 141 -14 153 -45 3
-9 6 -132 7 -273 1 -353 -7 -335 156 -342 65 -3 128 -11 140 -18 33 -18 46
-73 41 -173 -4 -76 -7 -92 -28 -114 -22 -24 -29 -25 -129 -25 -88 0 -112 -3
-138 -20 -18 -11 -33 -21 -33 -22 -1 -2 -3 -44 -6 -94 -7 -112 6 -171 42 -184
14 -6 136 -10 272 -10 144 0 263 -5 285 -11 68 -19 67 -5 67 -668 0 -324 3
-597 6 -606 13 -32 59 -45 166 -45 143 -1 158 -16 158 -153 0 -92 -13 -142
-39 -157 -10 -5 -66 -10 -125 -11 -95 -1 -111 1 -136 19 -28 21 -28 23 -32
141 -4 163 -5 164 -167 171 -98 4 -123 8 -140 24 -20 18 -20 28 -23 468 l-3
450 -28 24 c-26 22 -37 24 -130 24 -120 0 -160 -16 -171 -70 -3 -18 -6 -148
-6 -288 0 -318 8 -302 -144 -302 -113 0 -165 -18 -177 -61 -9 -30 -11 -486 -3
-526 3 -16 14 -40 24 -53 18 -24 25 -25 137 -28 158 -5 163 -9 164 -141 0
-111 14 -160 49 -178 18 -9 98 -13 295 -13 291 -1 295 -1 315 -54 13 -36 13
-175 -1 -215 -6 -17 -19 -36 -29 -41 -11 -6 -126 -10 -272 -10 -148 0 -269 -5
-291 -11 -53 -14 -66 -49 -64 -170 3 -104 18 -142 63 -153 13 -4 142 -6 286
-6 l261 1 26 -26 c23 -23 26 -35 30 -112 7 -168 -18 -193 -186 -193 -137 -1
-136 -1 -143 -148 -3 -64 -11 -127 -18 -138 -16 -30 -62 -44 -142 -44 -87 0
-124 8 -149 32 -20 18 -21 29 -21 291 0 358 6 347 -193 347 -79 0 -94 3 -114
22 -23 21 -23 22 -23 290 0 351 2 348 -168 348 -106 0 -154 -19 -163 -65 -4
-16 -7 -148 -8 -292 -1 -326 11 -303 -158 -303 -106 0 -119 2 -140 22 l-23 21
0 429 c0 467 -2 488 -55 508 -40 15 -190 12 -230 -5 -21 -8 -39 -25 -45 -40
-6 -16 -10 -196 -10 -458 0 -428 0 -431 -22 -454 l-21 -23 -449 0 c-532 0
-488 -12 -489 128 -1 189 -16 204 -189 201 -107 -1 -120 4 -140 56 -11 29 -15
1130 -4 1183 3 17 15 40 26 51 18 20 29 21 284 21 309 0 326 3 344 70 6 23 10
49 9 58 -1 9 -1 49 0 87 2 105 7 109 150 115 174 8 181 16 181 194 0 130 0
130 148 136 90 5 126 10 146 23 15 10 24 22 21 27 -3 5 -1 12 5 15 7 4 10 46
9 109 -2 118 7 141 61 157 22 6 131 9 285 7 259 -3 285 -7 301 -48 5 -14 7
-206 1 -233 -1 -6 -12 -19 -24 -29 -17 -15 -40 -18 -117 -18 -112 0 -161 -16
-176 -55 -6 -15 -10 -70 -10 -124 0 -84 -3 -102 -21 -125 -20 -25 -24 -26
-125 -26 -117 0 -158 -13 -174 -56 -6 -14 -10 -138 -10 -275 0 -338 1 -339
166 -339 99 0 150 17 164 55 6 15 10 72 10 128 0 155 -18 147 307 147 291 0
324 5 343 56 7 18 10 231 8 627 l-3 599 -28 24 -28 24 -432 0 c-238 0 -441 3
-452 6 -34 9 -44 38 -45 131 -1 48 -6 105 -11 125 -15 58 -37 68 -160 68 -92
0 -110 3 -133 21 l-26 20 0 265 c0 362 2 358 -182 352 -106 -3 -111 -4 -134
-31 l-24 -28 0 -768 c0 -754 0 -769 -20 -794 -19 -24 -25 -25 -141 -29 -119
-3 -121 -3 -145 -32 -23 -26 -25 -35 -23 -133 1 -91 -1 -109 -18 -131 l-20
-27 -452 -5 -453 -5 -23 -28 c-23 -26 -24 -34 -22 -142 3 -156 5 -158 166
-165 161 -7 161 -7 161 -155 0 -98 -3 -116 -21 -139 -20 -25 -24 -26 -125 -26
-111 0 -154 -12 -174 -49 -5 -11 -10 -67 -10 -124 0 -90 -3 -108 -21 -131 -20
-25 -24 -26 -120 -26 -108 0 -160 -14 -178 -48 -6 -12 -11 -68 -11 -125 0 -90
-3 -108 -21 -131 -20 -25 -23 -26 -139 -26 -164 0 -164 1 -167 153 -2 109 -1
116 22 141 23 25 29 26 123 26 107 0 157 12 172 40 11 20 14 228 4 255 -13 32
-59 45 -166 45 -143 1 -158 16 -158 153 0 93 13 142 40 157 10 6 57 10 103 10
104 0 140 7 166 32 19 17 21 30 21 137 0 102 -3 122 -19 142 l-19 24 -287 3
c-210 2 -291 6 -300 15 -33 34 -35 54 -35 477 0 458 1 470 56 490 15 6 207 10
459 10 l434 0 20 26 c18 23 21 41 21 121 0 108 16 158 55 173 15 6 141 10 293
10 222 1 270 3 287 16 17 13 21 31 26 140 8 167 8 167 167 175 64 3 125 9 134
13 27 12 38 62 38 166 0 140 4 144 152 148 62 1 123 8 135 14 32 16 44 65 42
168 -1 78 1 96 18 118 19 25 26 27 107 31 105 4 151 -4 177 -30 16 -16 19 -33
19 -118 0 -114 12 -159 47 -172 36 -14 235 -11 254 4 31 24 39 56 39 160 0
148 2 150 157 157 65 3 125 10 133 15 31 21 40 55 40 156 0 107 8 135 43 149
12 5 138 9 280 9 208 1 263 -2 286 -14z m998 -664 c38 -24 48 -71 41 -187 -4
-60 -10 -79 -28 -99 -22 -24 -29 -25 -137 -25 -108 0 -115 1 -138 25 -24 23
-25 30 -25 137 1 156 12 167 160 168 77 0 101 -4 127 -19z m-4942 -2656 l25
-24 0 -275 c0 -271 0 -275 -23 -301 -22 -26 -25 -27 -135 -26 -122 1 -148 9
-162 47 -6 14 -10 140 -10 280 0 261 5 303 42 317 7 3 64 6 126 6 107 1 114 0
137 -24z m6276 6 c22 -18 24 -28 27 -121 4 -106 -6 -153 -38 -170 -9 -5 -66
-10 -126 -11 -104 -2 -110 0 -136 24 -27 24 -28 27 -28 134 0 96 3 114 21 137
20 25 23 26 139 26 101 0 121 -3 141 -19z m-2328 -1642 c12 -7 25 -17 29 -23
11 -16 10 -234 -2 -256 -14 -26 -63 -40 -144 -40 -86 0 -137 13 -153 39 -9 15
-18 154 -14 227 1 6 10 23 22 38 20 25 24 26 130 26 64 0 120 -5 132 -11z
m3651 -14 l27 -25 -3 -280 c-4 -339 3 -323 -135 -329 -48 -2 -103 2 -125 8
-69 21 -69 25 -66 336 l3 277 24 19 c20 16 40 19 136 19 106 0 114 -1 139 -25z
m-6283 -324 c22 -18 24 -28 29 -141 5 -118 6 -122 33 -146 26 -22 36 -24 138
-24 103 0 111 -1 134 -25 24 -23 25 -31 25 -135 0 -110 0 -112 -29 -141 -28
-28 -33 -29 -123 -29 -106 0 -158 18 -169 60 -4 14 -7 70 -8 124 -1 88 -4 102
-23 123 -20 21 -30 23 -120 23 -114 0 -163 15 -178 55 -13 33 -13 186 -1 218
20 52 34 57 156 57 96 0 116 -3 136 -19z m3640 -337 c22 -24 24 -33 24 -140 0
-105 -2 -115 -23 -136 -21 -21 -31 -23 -136 -23 -107 0 -116 2 -140 24 -25 24
-26 29 -26 138 0 108 1 115 25 138 23 24 30 25 138 25 109 0 114 -1 138 -26z
m1302 15 c14 -6 30 -22 36 -36 7 -16 11 -158 11 -446 0 -402 -1 -424 -20 -454
-11 -18 -30 -35 -42 -38 -13 -3 -217 -5 -454 -3 l-432 3 -21 25 c-20 24 -20
34 -21 468 l0 443 25 24 24 25 435 0 c298 0 443 -4 459 -11z m-1306 -673 c26
-23 28 -30 31 -118 4 -112 -11 -162 -55 -179 -15 -6 -71 -9 -125 -7 -86 3 -99
6 -122 27 -25 24 -26 29 -26 138 0 108 1 115 25 138 23 24 31 25 134 25 102 0
112 -2 138 -24z m1984 -336 l30 -29 -3 -277 -3 -276 -29 -25 c-28 -24 -34 -25
-137 -21 -98 3 -110 5 -133 27 l-26 24 0 269 c0 218 3 274 15 298 8 15 20 30
27 33 7 3 62 6 121 6 107 1 109 1 138 -29z m-660 -329 c28 -28 29 -33 29 -126
0 -102 -13 -145 -50 -165 -13 -7 -116 -10 -287 -10 l-268 1 -27 26 c-27 26
-28 29 -28 140 0 108 1 115 25 138 l24 25 276 0 277 0 29 -29z m1320 -330 l29
-29 0 -260 c0 -155 -4 -271 -10 -289 -6 -17 -22 -35 -36 -42 -32 -14 -206 -14
-237 0 -46 21 -48 37 -45 332 l3 278 25 19 c21 17 42 20 133 20 107 0 109 0
138 -29z"/>
<path d="M5001 7916 c-39 -22 -50 -54 -51 -147 0 -95 12 -144 40 -159 10 -6
71 -10 134 -10 161 0 171 11 164 186 -3 93 -4 97 -33 120 -27 22 -39 24 -130
24 -64 -1 -109 -6 -124 -14z"/>
<path d="M3024 6930 c-44 -18 -54 -47 -54 -161 0 -165 24 -153 -325 -159
l-287 -5 -25 -29 c-24 -28 -25 -34 -21 -142 5 -168 -12 -158 291 -162 257 -4
310 0 342 24 17 13 20 30 25 132 3 64 11 127 18 139 18 33 73 46 173 41 76 -4
92 -7 114 -28 24 -22 25 -29 25 -129 0 -167 17 -183 187 -178 93 3 128 16 137
52 3 11 6 56 6 100 0 44 5 97 11 118 14 53 51 67 176 67 107 1 125 8 143 56
12 32 11 163 -1 209 -19 67 -5 65 -483 64 -237 0 -441 -4 -452 -9z"/>
<path d="M2693 5610 c-46 -19 -55 -50 -51 -169 4 -145 12 -154 134 -160 103
-4 149 4 175 30 17 17 19 33 19 137 -1 103 -3 120 -21 142 -20 23 -28 25 -128
27 -58 2 -116 -2 -128 -7z"/>
<path d="M4012 5275 c-18 -8 -37 -26 -43 -41 -6 -18 -9 -179 -7 -461 l3 -432
23 -23 c22 -23 27 -23 295 -26 257 -2 274 -2 304 17 39 24 47 59 41 176 -7
134 -22 145 -193 145 -83 0 -94 2 -113 23 -20 21 -22 34 -22 138 0 169 -20
159 308 159 352 0 352 0 352 166 0 99 -17 150 -55 164 -16 6 -190 10 -443 10
-337 -1 -423 -3 -450 -15z"/>
<path d="M7622 2617 c-20 -21 -22 -34 -22 -141 0 -114 1 -118 26 -141 25 -23
34 -25 136 -25 108 0 110 0 140 30 l30 30 -4 114 c-4 157 -3 156 -163 156
-114 0 -123 -1 -143 -23z"/>
<path d="M5313 9886 c-28 -24 -28 -26 -28 -139 0 -108 1 -117 24 -141 24 -25
29 -26 139 -26 113 0 114 0 144 30 l30 30 -4 110 c-3 105 -4 111 -30 135 -26
24 -34 25 -137 25 -102 0 -112 -2 -138 -24z"/>
<path d="M7600 8755 l0 -1155 1155 0 1155 0 0 1155 0 1155 -1155 0 -1155 0 0
-1155z m1980 0 l0 -825 -825 0 -825 0 0 825 0 825 825 0 825 0 0 -825z"/>
<path d="M8260 8755 l0 -495 495 0 495 0 0 495 0 495 -495 0 -495 0 0 -495z"/>
<path d="M6983 8910 c-36 -14 -43 -43 -43 -163 0 -106 2 -115 23 -135 21 -20
34 -22 139 -22 163 0 163 0 163 158 0 114 -1 122 -24 146 -23 25 -29 26 -130
25 -58 0 -116 -4 -128 -9z"/>
<path d="M7645 7258 c-40 -22 -45 -38 -45 -158 0 -109 2 -118 23 -138 21 -20
34 -22 140 -22 114 0 117 1 142 28 25 26 26 30 23 140 -3 111 -4 114 -31 138
-26 22 -37 24 -130 24 -56 0 -111 -6 -122 -12z"/>
<path d="M9295 7258 c-46 -25 -45 -9 -45 -649 l0 -608 24 -28 c24 -28 26 -28
139 -28 108 0 117 1 141 24 l26 24 0 443 0 443 24 28 c24 27 28 28 146 33 159
7 160 7 160 162 0 108 0 110 -29 139 l-29 29 -269 0 c-175 -1 -275 -4 -288
-12z"/>
<path d="M390 4953 c-8 -3 -25 -15 -37 -26 -21 -19 -23 -29 -23 -135 0 -113 0
-114 30 -143 l30 -30 274 3 274 3 26 24 c25 24 26 29 26 137 0 105 -2 115 -24
141 l-24 28 -269 2 c-147 1 -275 -1 -283 -4z"/>
<path d="M396 3960 c-61 -19 -66 -32 -66 -157 0 -113 0 -115 29 -144 28 -28
33 -29 124 -29 102 0 152 12 167 40 6 10 10 68 10 129 0 101 -2 112 -24 137
-22 26 -29 28 -117 31 -52 1 -107 -2 -123 -7z"/>
<path d="M1713 3959 c-54 -16 -63 -40 -63 -162 0 -107 1 -109 29 -138 29 -28
32 -29 131 -29 111 0 153 13 164 52 3 13 6 69 6 125 0 93 -2 104 -24 129 -22
26 -29 28 -117 31 -52 1 -108 -2 -126 -8z"/>
<path d="M330 1485 l0 -1155 1155 0 1155 0 0 1155 0 1155 -1155 0 -1155 0 0
-1155z m1980 0 l0 -825 -825 0 -825 0 0 825 0 825 825 0 825 0 0 -825z"/>
<path d="M990 1485 l0 -495 495 0 495 0 0 495 0 495 -495 0 -495 0 0 -495z"/>
<path d="M4993 978 c-40 -19 -44 -50 -41 -330 3 -266 3 -266 27 -292 24 -25
29 -26 139 -26 l114 0 29 32 30 31 -3 273 -3 272 -24 26 c-24 25 -29 26 -135
25 -61 0 -121 -5 -133 -11z"/>
<path d="M6636 639 c-25 -20 -26 -23 -26 -138 0 -105 2 -121 21 -145 l20 -26
280 0 281 0 29 29 c28 29 29 32 29 131 0 105 -13 151 -45 164 -9 3 -139 6
-289 6 -261 0 -274 -1 -300 -21z"/>
<path d="M7626 639 c-25 -20 -26 -23 -26 -140 0 -114 1 -121 25 -144 l24 -25
273 0 c351 0 338 -6 338 160 0 105 -9 138 -44 162 -6 4 -135 8 -287 8 -265 0
-277 -1 -303 -21z"/>
</g>
</svg>
