<svg width="35" height="35" viewBox="0 0 35 35" fill="none" xmlns="http://www.w3.org/2000/svg">
<path d="M35 26.25C35 27.2814 34.5903 28.2706 33.861 28.9999C33.1317 29.7292 32.1425 30.1389 31.1111 30.1389H3.88889C2.85749 30.1389 1.86834 29.7292 1.13903 28.9999C0.409721 28.2706 0 27.2814 0 26.25V8.75C0 7.71861 0.409721 6.72945 1.13903 6.00014C1.86834 5.27084 2.85749 4.86111 3.88889 4.86111H31.1111C32.1425 4.86111 33.1317 5.27084 33.861 6.00014C34.5903 6.72945 35 7.71861 35 8.75V26.25Z" fill="#009B3A"/>
<path d="M31.8189 17.5L17.5 28.315L3.18115 17.5L17.5 6.68402L31.8189 17.5Z" fill="#FEDF01"/>
<path d="M17.4766 23.7047C20.9442 23.7047 23.7552 20.8937 23.7552 17.4261C23.7552 13.9585 20.9442 11.1475 17.4766 11.1475C14.009 11.1475 11.198 13.9585 11.198 17.4261C11.198 20.8937 14.009 23.7047 17.4766 23.7047Z" fill="#002776"/>
<path d="M11.9359 14.4735C11.6097 15.0879 11.3889 15.7528 11.2826 16.4403C15.1666 16.1583 20.438 18.2788 22.7004 20.9076C23.0912 20.3204 23.3809 19.6632 23.5588 18.9593C20.7666 16.2293 15.8618 14.4579 11.9359 14.4735Z" fill="#CBE9D4"/>
<path d="M11.6666 17.7265H12.6388V18.6988H11.6666V17.7265ZM12.6388 19.671H13.6111V20.6432H12.6388V19.671Z" fill="#88C9F9"/>
<path d="M14.5834 17.7265H15.5556V18.6988H14.5834V17.7265ZM16.5278 18.6988H17.5V19.671H16.5278V18.6988ZM20.4167 20.6432H21.3889V21.6154H20.4167V20.6432ZM17.5 21.6154H18.4723V22.5876H17.5V21.6154ZM20.4167 15.7821H21.3889V16.7543H20.4167V15.7821Z" fill="#55ACEE"/>
<path d="M18.4722 19.671H19.4444V20.6432H18.4722V19.671Z" fill="#3B88C3"/>
</svg>
