<svg width="123" height="105" viewBox="0 0 123 105" fill="none" xmlns="http://www.w3.org/2000/svg">
<path d="M31.1875 44.0909C35.2072 44.0909 39.0622 42.8135 41.9046 40.5396C44.7469 38.2657 46.3438 35.1817 46.3438 31.9659M31.1875 44.0909C27.1678 44.0909 23.3128 42.8135 20.4704 40.5396C17.6281 38.2657 16.0313 35.1817 16.0313 31.9659M31.1875 44.0909V56.2159M46.3438 31.9659C46.3438 28.7502 44.7469 25.6662 41.9046 23.3923C39.0622 21.1184 35.2072 19.8409 31.1875 19.8409M46.3438 31.9659H61.5M31.1875 19.8409C27.1678 19.8409 23.3128 21.1184 20.4704 23.3923C17.6281 25.6662 16.0313 28.7502 16.0313 31.9659M31.1875 19.8409V7.71594M16.0313 31.9659H0.875M10.9792 15.7993L21.0833 23.8826M41.2917 40.0493L51.3958 48.1326M51.3958 15.7993L41.2917 23.8826M21.0833 40.0493L10.9792 48.1326M91.8125 56.2159C95.8322 56.2159 99.6872 54.9385 102.53 52.6646C105.372 50.3907 106.969 47.3067 106.969 44.0909M91.8125 56.2159C87.7928 56.2159 83.9378 54.9385 81.0954 52.6646C78.2531 50.3907 76.6563 47.3067 76.6563 44.0909M91.8125 56.2159V68.3409M106.969 44.0909C106.969 40.8752 105.372 37.7912 102.53 35.5173C99.6872 33.2434 95.8322 31.9659 91.8125 31.9659M106.969 44.0909H122.125M91.8125 31.9659C87.7928 31.9659 83.9378 33.2434 81.0954 35.5173C78.2531 37.7912 76.6563 40.8752 76.6563 44.0909M91.8125 31.9659V19.8409M76.6563 44.0909H61.5M71.6042 27.9243L81.7083 36.0076M101.917 52.1743L112.021 60.2576M112.021 27.9243L101.917 36.0076M81.7083 52.1743L71.6042 60.2576M46.3438 92.5909C50.3634 92.5909 54.2185 91.3135 57.0608 89.0396C59.9032 86.7657 61.5 83.6817 61.5 80.4659M46.3438 92.5909C42.3241 92.5909 38.469 91.3135 35.6267 89.0396C32.7843 86.7657 31.1875 83.6817 31.1875 80.4659M46.3438 92.5909V104.716M61.5 80.4659C61.5 77.2502 59.9032 74.1662 57.0608 71.8923C54.2185 69.6184 50.3634 68.3409 46.3438 68.3409M61.5 80.4659H76.6563M46.3438 68.3409C42.3241 68.3409 38.469 69.6184 35.6267 71.8923C32.7843 74.1662 31.1875 77.2502 31.1875 80.4659M46.3438 68.3409V56.2159M31.1875 80.4659H16.0313M26.1354 64.2993L36.2396 72.3826M56.4479 88.5493L66.5521 96.6326M66.5521 64.2993L56.4479 72.3826M36.2396 88.5493L26.1354 96.6326" stroke="#FF7900" stroke-width="4"/>
</svg>
