<svg width="70" height="70" viewBox="0 0 70 70" fill="none" xmlns="http://www.w3.org/2000/svg">
<path d="M48.4161 16.975C46.4228 14.6986 45.3242 11.7757 45.3245 8.75H36.312V44.9167C36.2439 46.8743 35.4181 48.729 34.0087 50.0894C32.5993 51.4498 30.7166 52.2095 28.7578 52.2083C24.6161 52.2083 21.1745 48.825 21.1745 44.625C21.1745 39.6083 26.0161 35.8458 31.0036 37.3917V28.175C20.9411 26.8333 12.1328 34.65 12.1328 44.625C12.1328 54.3375 20.1828 61.25 28.7286 61.25C37.887 61.25 45.3245 53.8125 45.3245 44.625V26.2792C48.979 28.9037 53.3668 30.3119 57.8661 30.3042V21.2917C57.8661 21.2917 52.3828 21.5542 48.4161 16.975Z" fill="#200C80"/>
</svg>
