<svg width="35" height="35" viewBox="0 0 35 35" fill="none" xmlns="http://www.w3.org/2000/svg">
<path d="M35 26.25C35 27.2814 34.5903 28.2706 33.861 28.9999C33.1317 29.7292 32.1425 30.1389 31.1111 30.1389H3.88889C2.85749 30.1389 1.86834 29.7292 1.13903 28.9999C0.409721 28.2706 0 27.2814 0 26.25V8.75C0 7.71861 0.409721 6.72945 1.13903 6.00014C1.86834 5.27084 2.85749 4.86111 3.88889 4.86111H31.1111C32.1425 4.86111 33.1317 5.27084 33.861 6.00014C34.5903 6.72945 35 7.71861 35 8.75V26.25Z" fill="#C60A1D"/>
<path d="M0 11.6667H35V23.3333H0V11.6667Z" fill="#FFC400"/>
<path d="M8.75 16.5278V19.4444C8.75 20.218 9.05729 20.9599 9.60427 21.5068C10.1513 22.0538 10.8931 22.3611 11.6667 22.3611C12.4402 22.3611 13.1821 22.0538 13.7291 21.5068C14.276 20.9599 14.5833 20.218 14.5833 19.4444V16.5278H8.75Z" fill="#EA596E"/>
<path d="M11.6666 15.5556H14.5833V18.4722H11.6666V15.5556Z" fill="#F4A2B2"/>
<path d="M8.75 15.5556H11.6667V18.4722H8.75V15.5556Z" fill="#DD2E44"/>
<path d="M11.6667 15.5556C13.2775 15.5556 14.5833 14.9026 14.5833 14.0972C14.5833 13.2918 13.2775 12.6389 11.6667 12.6389C10.0558 12.6389 8.75 13.2918 8.75 14.0972C8.75 14.9026 10.0558 15.5556 11.6667 15.5556Z" fill="#EA596E"/>
<path d="M11.6667 14.0972C13.2775 14.0972 14.5833 13.7708 14.5833 13.3681C14.5833 12.9653 13.2775 12.6389 11.6667 12.6389C10.0558 12.6389 8.75 12.9653 8.75 13.3681C8.75 13.7708 10.0558 14.0972 11.6667 14.0972Z" fill="#FFAC33"/>
<path d="M6.80554 15.5556H7.77776V22.3611H6.80554V15.5556ZM15.5555 15.5556H16.5278V22.3611H15.5555V15.5556Z" fill="#99AAB5"/>
<path d="M5.83337 21.3889H8.75004V22.3611H5.83337V21.3889ZM14.5834 21.3889H17.5V22.3611H14.5834V21.3889ZM6.8056 14.5833H7.77782V15.5556H6.8056V14.5833ZM15.5556 14.5833H16.5278V15.5556H15.5556V14.5833Z" fill="#66757F"/>
</svg>
