<svg width="71" height="71" viewBox="0 0 71 71" fill="none" xmlns="http://www.w3.org/2000/svg">
<path d="M64.508 29.7061H62.125V29.5834H35.5V41.4167H52.219C49.7799 48.3052 43.2257 53.25 35.5 53.25C25.6976 53.25 17.75 45.3025 17.75 35.5C17.75 25.6976 25.6976 17.75 35.5 17.75C40.0248 17.75 44.1413 19.457 47.2757 22.2452L55.6433 13.8776C50.3597 8.95342 43.2923 5.91669 35.5 5.91669C19.1626 5.91669 5.91669 19.1626 5.91669 35.5C5.91669 51.8374 19.1626 65.0834 35.5 65.0834C51.8374 65.0834 65.0834 51.8374 65.0834 35.5C65.0834 33.5165 64.8792 31.5802 64.508 29.7061Z" fill="#FFC107"/>
<path d="M9.32764 21.7305L19.0472 28.8586C21.6772 22.3473 28.0465 17.75 35.5 17.75C40.0248 17.75 44.1413 19.457 47.2757 22.2452L55.6433 13.8776C50.3597 8.95342 43.2923 5.91669 35.5 5.91669C24.1371 5.91669 14.2828 12.3318 9.32764 21.7305Z" fill="#FF3D00"/>
<path d="M35.5 65.0833C43.1414 65.0833 50.0846 62.159 55.3342 57.4035L46.1781 49.6556C43.1087 51.9913 39.3571 53.2541 35.5 53.25C27.8054 53.25 21.2719 48.3436 18.8106 41.4965L9.16345 48.9293C14.0595 58.5099 24.0025 65.0833 35.5 65.0833Z" fill="#4CAF50"/>
<path d="M64.5079 29.7061H62.125V29.5833H35.5V41.4166H52.219C51.0523 44.6951 48.9506 47.5599 46.1737 49.6571L46.1781 49.6541L55.3341 57.402C54.6863 57.9907 65.0833 50.2916 65.0833 35.5C65.0833 33.5164 64.8792 31.5802 64.5079 29.7061Z" fill="#1976D2"/>
</svg>
